<svg xmlns="http://www.w3.org/2000/svg" width="80" height="80" viewBox="0 0 80 80">
    <g fill="#2086FB" fill-rule="nonzero">
        <path d="M46.002 59.7H17.228v-5.487a1.17 1.17 0 0 0-2.34 0v5.767c0 1.135.924 2.059 2.06 2.059h6.984v7.35a.197.197 0 0 1-.196.196h-5.83v-1.158a2.582 2.582 0 0 0-2.58-2.58h-4.655a2.583 2.583 0 0 0-2.58 2.58v4.655a2.583 2.583 0 0 0 2.58 2.58h4.655a2.582 2.582 0 0 0 2.58-2.58v-1.158h5.83a2.538 2.538 0 0 0 2.535-2.536V62.04h12.996v7.99H38.11a2.583 2.583 0 0 0-2.58 2.58v4.656a2.583 2.583 0 0 0 2.58 2.58h4.655a2.583 2.583 0 0 0 2.58-2.58V72.61a2.583 2.583 0 0 0-2.58-2.58h-1.158v-7.991h4.396a1.17 1.17 0 0 0 0-2.34zM15.567 73.082a.24.24 0 0 1-.24.24H10.67a.24.24 0 0 1-.24-.24v-4.655a.24.24 0 0 1 .24-.24h4.655a.24.24 0 0 1 .24.24v4.655zm27.197-.713a.24.24 0 0 1 .24.24v4.656a.24.24 0 0 1-.24.24h-4.655a.24.24 0 0 1-.24-.24V72.61a.24.24 0 0 1 .24-.24h4.655zM46.148 21.616h-23.55a1.17 1.17 0 0 0 0 2.339h23.55a1.17 1.17 0 0 0 0-2.34zM51.096 21.416a1.17 1.17 0 0 0-1.17 1.17v.127a1.17 1.17 0 1 0 2.34 0v-.128a1.17 1.17 0 0 0-1.17-1.17zM54.685 21.416a1.17 1.17 0 0 0-1.17 1.17v.127a1.17 1.17 0 1 0 2.34 0v-.128a1.17 1.17 0 0 0-1.17-1.17zM58.275 21.416a1.17 1.17 0 0 0-1.17 1.17v.127a1.17 1.17 0 1 0 2.34 0v-.128a1.17 1.17 0 0 0-1.17-1.17z"/>
        <path d="M70.202 4.183h-4.655a2.582 2.582 0 0 0-2.58 2.58V7.92h-5.83a2.538 2.538 0 0 0-2.535 2.536v7.35H41.606V9.813h1.158a2.583 2.583 0 0 0 2.58-2.58V2.58A2.583 2.583 0 0 0 42.764 0H38.11a2.583 2.583 0 0 0-2.58 2.58v4.655a2.583 2.583 0 0 0 2.58 2.58h1.158v7.99H26.271v-7.35a2.538 2.538 0 0 0-2.535-2.535h-5.83V6.762a2.582 2.582 0 0 0-2.58-2.58h-4.655a2.583 2.583 0 0 0-2.58 2.58v4.655a2.583 2.583 0 0 0 2.58 2.58h4.655a2.582 2.582 0 0 0 2.58-2.58V10.26h5.83c.108 0 .196.089.196.197v7.35h-5.928a3.12 3.12 0 0 0-3.115 3.115v28.517a1.17 1.17 0 0 0 2.339 0V27.493h46.417v4.688a1.17 1.17 0 0 0 2.339 0V20.92a3.12 3.12 0 0 0-3.116-3.116h-5.927v-7.35c0-.107.088-.196.196-.196h5.83v1.158a2.582 2.582 0 0 0 2.58 2.58h4.655a2.583 2.583 0 0 0 2.58-2.58V6.762a2.582 2.582 0 0 0-2.58-2.58zm-54.635 7.234a.24.24 0 0 1-.24.24H10.67a.24.24 0 0 1-.24-.24V6.762a.24.24 0 0 1 .24-.24h4.655a.24.24 0 0 1 .24.24v4.655zm22.542-3.942a.24.24 0 0 1-.24-.24V2.578a.24.24 0 0 1 .24-.24h4.655a.24.24 0 0 1 .24.24v4.655a.24.24 0 0 1-.24.24H38.11zm24.76 12.67c.427 0 .776.348.776.776v4.233H17.228v-4.233c0-.428.348-.776.776-.776h44.864zm7.573-8.728a.24.24 0 0 1-.24.24h-4.655a.24.24 0 0 1-.24-.24V6.762a.24.24 0 0 1 .24-.24h4.655a.24.24 0 0 1 .24.24v4.655zM70.202 65.847h-4.655a2.582 2.582 0 0 0-2.58 2.58v1.158h-5.83a.197.197 0 0 1-.196-.197V62.04h6.984c1.135 0 2.06-.924 2.06-2.059V36.955a1.17 1.17 0 0 0-2.34 0V59.7H50.777a1.17 1.17 0 0 0 0 2.34h3.825v7.348a2.538 2.538 0 0 0 2.536 2.536h5.83v1.158a2.582 2.582 0 0 0 2.58 2.58h4.654a2.583 2.583 0 0 0 2.58-2.58v-4.655a2.583 2.583 0 0 0-2.58-2.58zm.24 7.235a.24.24 0 0 1-.24.24h-4.655a.24.24 0 0 1-.24-.24v-4.655a.24.24 0 0 1 .24-.24h4.655a.24.24 0 0 1 .24.24v4.655z"/>
        <path d="M25.651 43.2l4.374-4.374a1.17 1.17 0 0 0-1.654-1.654l-5.2 5.2a1.17 1.17 0 0 0 0 1.654l5.2 5.2a1.166 1.166 0 0 0 1.654 0 1.17 1.17 0 0 0 0-1.653l-4.374-4.374zM57.703 42.372l-5.2-5.2a1.17 1.17 0 1 0-1.655 1.654l4.374 4.373-4.374 4.374a1.17 1.17 0 0 0 1.654 1.654l5.2-5.2a1.17 1.17 0 0 0 0-1.655zM39.347 37.658a1.17 1.17 0 0 0-1.583.48l-5.186 9.71a1.17 1.17 0 0 0 2.063 1.103l5.187-9.71a1.17 1.17 0 0 0-.481-1.583zM40.106 46.984a1.17 1.17 0 0 0-1.17 1.17v.117a1.17 1.17 0 0 0 2.34 0v-.118a1.17 1.17 0 0 0-1.17-1.17zM43.915 46.984a1.17 1.17 0 0 0-1.17 1.17v.117a1.17 1.17 0 0 0 2.34 0v-.118a1.17 1.17 0 0 0-1.17-1.17zM47.725 46.984a1.17 1.17 0 0 0-1.17 1.17v.117a1.17 1.17 0 0 0 2.34 0v-.118a1.17 1.17 0 0 0-1.17-1.17z"/>
    </g>
</svg>
