<svg xmlns="http://www.w3.org/2000/svg" width="80" height="80" viewBox="0 0 80 80">
    <g fill="#2086FB" fill-rule="nonzero">
        <path d="M45.389 37.865a1.335 1.335 0 0 0 1.791.582c.079-.04 7.911-4.02 11.775-5.24a1.33 1.33 0 0 0-.804-2.538c-4.07 1.287-11.85 5.239-12.18 5.406a1.332 1.332 0 0 0-.582 1.79zM46.577 22.623c.203 0 .41-.046.603-.145.079-.04 7.911-4.019 11.775-5.239a1.33 1.33 0 0 0-.804-2.539c-4.07 1.287-11.85 5.24-12.18 5.407a1.332 1.332 0 0 0 .606 2.516z"/>
        <path d="M78.514 19.962a1.33 1.33 0 0 0-1.331 1.33v51.899a3.997 3.997 0 0 1-3.992 3.992H41.253v-3.062c1.94-.679 6.994-2.26 11.977-2.26 11.592 0 19.463 2.566 19.542 2.593a1.33 1.33 0 0 0 1.75-1.263V14.639c0-.624-.433-1.165-1.043-1.3 0 0-1.043-.232-2.826-.56a1.33 1.33 0 1 0-.482 2.618c.68.125 1.25.236 1.689.324v55.701c-3.016-.79-9.712-2.223-18.63-2.223-5.798 0-11.494 1.904-13.256 2.55-1.566-.692-6.3-2.55-12.028-2.55-9.167 0-16.717 1.511-19.961 2.28v-55.81c2.657-.654 10.506-2.361 19.96-2.361 4.853 0 9.014 1.51 10.647 2.193v52.367a1.33 1.33 0 0 0 2.016 1.14c.131-.078 13.316-7.953 25.019-11.854.544-.182.91-.689.91-1.263V1.331a1.33 1.33 0 0 0-1.8-1.246C54.092 4.078 43.318 10.782 43.21 10.849a1.331 1.331 0 0 0 1.41 2.257c.1-.063 9.472-5.894 19.256-9.829v51.662c-9.083 3.156-18.567 8.31-22.622 10.618V14.639c0-.505-.285-.965-.736-1.191-.229-.113-5.682-2.801-12.571-2.801-12.025 0-21.27 2.601-21.658 2.713a1.33 1.33 0 0 0-.965 1.279V73.19a1.33 1.33 0 0 0 1.695 1.279c.092-.025 9.294-2.61 20.928-2.61 4.865 0 9.022 1.515 10.646 2.195v3.128H6.654a3.997 3.997 0 0 1-3.992-3.992V21.292a1.331 1.331 0 0 0-2.662 0v51.9a6.661 6.661 0 0 0 6.654 6.653h66.537a6.661 6.661 0 0 0 6.654-6.654V21.292a1.33 1.33 0 0 0-1.331-1.33z"/>
        <path d="M45.389 29.88a1.335 1.335 0 0 0 1.791.582c.079-.04 7.911-4.018 11.775-5.239a1.33 1.33 0 0 0-.804-2.539c-4.07 1.287-11.85 5.24-12.18 5.407a1.332 1.332 0 0 0-.582 1.79zM45.389 45.85a1.335 1.335 0 0 0 1.791.581c.079-.04 7.911-4.019 11.775-5.239a1.33 1.33 0 0 0-.804-2.539c-4.07 1.287-11.85 5.24-12.18 5.407a1.332 1.332 0 0 0-.582 1.79zM32.241 24.696c-8.217-1.928-17.555.529-17.947.634a1.331 1.331 0 0 0 .69 2.57c.088-.024 9.079-2.39 16.65-.613a1.33 1.33 0 1 0 .607-2.59zM32.241 32.68c-8.217-1.926-17.555.53-17.947.634a1.331 1.331 0 0 0 .69 2.571c.088-.025 9.079-2.39 16.65-.613a1.33 1.33 0 1 0 .607-2.59zM45.389 53.834a1.335 1.335 0 0 0 1.791.582c.079-.04 7.911-4.02 11.775-5.24a1.33 1.33 0 0 0-.804-2.538c-4.07 1.286-11.85 5.239-12.18 5.406a1.332 1.332 0 0 0-.582 1.79zM32.241 40.665c-8.217-1.927-17.555.527-17.947.634a1.331 1.331 0 0 0 .69 2.57c.088-.025 9.079-2.39 16.65-.613a1.33 1.33 0 1 0 .607-2.59zM32.241 56.634c-8.217-1.928-17.555.528-17.947.634a1.331 1.331 0 0 0 .69 2.57c.088-.025 9.079-2.39 16.65-.613a1.33 1.33 0 1 0 .607-2.59zM32.241 48.65c-8.217-1.929-17.555.527-17.947.633a1.331 1.331 0 0 0 .69 2.571c.088-.025 9.079-2.39 16.65-.613a1.33 1.33 0 1 0 .607-2.59z"/>
    </g>
</svg>
