<svg xmlns="http://www.w3.org/2000/svg" width="80" height="80" viewBox="0 0 80 80">
    <g fill="none" fill-rule="nonzero" stroke="#2086FB" stroke-width="3">
        <path d="M76.243 43.582h-2.9c-.784 0-1.7-.71-1.998-1.551a22.98 22.98 0 0 0-.964-2.306c-.387-.799-.244-1.942.31-2.497l2.065-2.064a3.713 3.713 0 0 0 0-5.245l-3.35-3.35a3.685 3.685 0 0 0-2.624-1.087c-.99 0-1.922.385-2.622 1.086l-2.065 2.064c-.331.332-.883.53-1.475.53-.371 0-.724-.076-1.02-.22a23.094 23.094 0 0 0-2.31-.966c-.84-.298-1.55-1.213-1.55-1.998v-2.9a3.713 3.713 0 0 0-3.71-3.709h-4.739a3.713 3.713 0 0 0-3.709 3.71v2.9c0 .784-.71 1.699-1.55 1.997-.78.277-1.557.601-2.307.964-.291.14-.653.218-1.018.218-.595 0-1.148-.198-1.48-.53l-2.061-2.06a3.685 3.685 0 0 0-2.624-1.087c-.99 0-1.922.386-2.622 1.086l-3.354 3.352a3.684 3.684 0 0 0-1.087 2.623c0 .99.385 1.922 1.086 2.622l2.064 2.065c.556.555.698 1.699.312 2.498-.363.75-.687 1.525-.963 2.305-.299.84-1.213 1.55-1.998 1.55h-2.9a3.713 3.713 0 0 0-3.709 3.709v4.74a3.713 3.713 0 0 0 3.71 3.709h2.899c.785 0 1.7.71 1.998 1.55.276.777.6 1.553.964 2.304.386.799.243 1.943-.313 2.498l-2.064 2.065a3.713 3.713 0 0 0 0 5.245l3.355 3.356c.7.7 1.632 1.086 2.623 1.086.99 0 1.922-.386 2.623-1.086l2.064-2.065c.332-.332.885-.53 1.48-.53.37 0 .722.075 1.018.218.75.363 1.526.688 2.305.964.84.299 1.55 1.214 1.55 1.998v2.9a3.713 3.713 0 0 0 3.709 3.71h4.74a3.713 3.713 0 0 0 3.708-3.71v-2.9c0-.784.71-1.7 1.55-1.997.781-.277 1.558-.602 2.308-.964a2.381 2.381 0 0 1 1.018-.219c.595 0 1.148.199 1.48.53l2.064 2.065c.7.7 1.632 1.086 2.622 1.086.992 0 1.923-.386 2.624-1.087l3.352-3.354a3.715 3.715 0 0 0 0-5.246l-2.063-2.063c-.555-.555-.697-1.699-.311-2.498.362-.75.686-1.526.963-2.306.298-.84 1.213-1.55 1.998-1.55h2.899a3.713 3.713 0 0 0 3.71-3.709v-4.74a3.716 3.716 0 0 0-3.711-3.71zM60.531 49.66c0 5.994-4.877 10.87-10.87 10.87-5.993 0-10.87-4.876-10.87-10.87 0-5.993 4.877-10.87 10.87-10.87 5.993 0 10.87 4.877 10.87 10.87zM27.188 19.785c.07-.197.304-.364.415-.364h1.452a2.475 2.475 0 0 0 2.473-2.473v-2.37a2.475 2.475 0 0 0-2.473-2.472h-1.452c-.11 0-.345-.166-.415-.364-.146-.41-.317-.82-.508-1.215-.09-.185-.042-.464.035-.542l1.032-1.032a2.476 2.476 0 0 0 0-3.497l-1.675-1.675a2.457 2.457 0 0 0-1.748-.724c-.661 0-1.282.257-1.75.724l-1.031 1.032c-.032.032-.143.084-.301.084a.57.57 0 0 1-.24-.048 12.002 12.002 0 0 0-1.216-.508c-.198-.07-.364-.305-.364-.415V2.474A2.475 2.475 0 0 0 16.949 0h-2.37a2.475 2.475 0 0 0-2.472 2.473v1.452c0 .11-.167.344-.364.414a12.04 12.04 0 0 0-1.216.509.577.577 0 0 1-.24.047c-.16 0-.27-.05-.301-.083L8.953 3.781a2.457 2.457 0 0 0-1.748-.724c-.661 0-1.282.257-1.749.724L3.781 5.456a2.476 2.476 0 0 0 0 3.498l1.032 1.032c.077.077.125.356.036.54a12.04 12.04 0 0 0-.509 1.216c-.07.198-.305.365-.415.365H2.473A2.475 2.475 0 0 0 0 14.58v2.37a2.475 2.475 0 0 0 2.472 2.472h1.453c.11 0 .345.166.415.364.146.411.317.82.508 1.215.09.185.042.464-.035.542L3.78 22.575a2.457 2.457 0 0 0-.724 1.749c0 .66.258 1.281.725 1.748l1.675 1.675a2.457 2.457 0 0 0 1.749.724c.66 0 1.281-.257 1.748-.724l1.032-1.032c.032-.032.143-.084.302-.084.09 0 .177.018.24.048.396.192.805.363 1.215.508.198.07.365.305.365.415v1.453a2.476 2.476 0 0 0 2.472 2.472h2.37a2.475 2.475 0 0 0 2.473-2.472v-1.452c0-.11.166-.345.364-.415.41-.146.82-.317 1.215-.509a.572.572 0 0 1 .24-.047c.16 0 .27.051.302.083l1.032 1.033a2.457 2.457 0 0 0 1.749.724c.66 0 1.281-.257 1.748-.724l1.675-1.676a2.476 2.476 0 0 0 0-3.496l-1.032-1.032c-.077-.078-.125-.357-.036-.542.192-.398.363-.806.509-1.217zm-6.607-4.021a4.822 4.822 0 0 1-4.817 4.816 4.822 4.822 0 0 1-4.817-4.816 4.822 4.822 0 0 1 4.817-4.817 4.822 4.822 0 0 1 4.817 4.817z"/>
    </g>
</svg>
