<svg xmlns="http://www.w3.org/2000/svg" width="80" height="80" viewBox="0 0 80 80">
    <g fill="#2086FB" fill-rule="nonzero">
        <path d="M74.665 1.083H5.335A5.341 5.341 0 0 0 0 6.418v43.999c0 .736.597 1.333 1.333 1.333h77.334c.736 0 1.333-.597 1.333-1.333V6.418a5.34 5.34 0 0 0-5.335-5.335zm2.668 48H2.667V6.418A2.67 2.67 0 0 1 5.335 3.75h69.33a2.67 2.67 0 0 1 2.668 2.668v42.665z"/>
        <path d="M78.667 49.083H1.333c-.736 0-1.333.598-1.333 1.334v6.665a5.34 5.34 0 0 0 5.335 5.335h69.33A5.34 5.34 0 0 0 80 57.082v-6.665c0-.736-.597-1.334-1.333-1.334zm-1.334 7.999a2.67 2.67 0 0 1-2.668 2.668H5.335a2.67 2.67 0 0 1-2.668-2.668V51.75h74.666v5.332z"/>
        <path d="M44 54.417h-8a1.334 1.334 0 0 0 0 2.666h8a1.334 1.334 0 0 0 0-2.666zM73.333 6.417H6.667c-.736 0-1.334.597-1.334 1.333v42.667c0 .736.598 1.333 1.334 1.333h66.666c.736 0 1.334-.597 1.334-1.333V7.75c0-.736-.598-1.333-1.334-1.333zM72 49.083H8v-40h64v40zM57.333 70.417H22.667c-2.206 0-4 1.794-4 4 0 2.205 1.794 4 4 4h34.666c2.206 0 4-1.795 4-4 0-2.206-1.794-4-4-4zm0 5.333H22.667a1.335 1.335 0 0 1-1.334-1.333c0-.735.598-1.334 1.334-1.334h34.666a1.335 1.335 0 0 1 0 2.667z"/>
        <path d="M54.667 70.417c-4.424 0-6.667-3.14-6.667-9.334 0-.736-.597-1.333-1.333-1.333H33.333c-.736 0-1.333.597-1.333 1.333 0 6.194-2.242 9.334-6.667 9.334a1.334 1.334 0 0 0 0 2.666h29.334a1.334 1.334 0 0 0 0-2.666zm-22.839 0c1.641-1.819 2.608-4.527 2.803-8h10.74c.193 3.473 1.16 6.181 2.802 8H31.828zM63.712 40.369l-3.219-3.219 1.791-1.79a1.335 1.335 0 0 0-.559-2.22l-13.333-4a1.331 1.331 0 0 0-1.325.334 1.33 1.33 0 0 0-.335 1.325l4 13.334a1.332 1.332 0 0 0 2.22.56l1.885-1.887 3.219 3.22a1.33 1.33 0 0 0 1.885 0l3.77-3.772a1.332 1.332 0 0 0 .001-1.885zm-4.713 2.829l-2.931-2.932a1.74 1.74 0 0 0-2.461-.001l-.963.962-2.647-8.822 8.823 2.646-1.032 1.032c-.284.286-.44.664-.44 1.067 0 .404.157.785.443 1.068l3.093 3.093-1.885 1.887zM56 11.75H18.667c-.736 0-1.334.597-1.334 1.333v6.667c0 .736.598 1.333 1.334 1.333H56c.736 0 1.333-.597 1.333-1.333v-6.667c0-.736-.597-1.333-1.333-1.333zm-1.333 6.667H20v-4h34.667v4zM34.667 26.417H24c-.736 0-1.333.597-1.333 1.333v5.333c0 .736.597 1.334 1.333 1.334h10.667c.736 0 1.333-.598 1.333-1.334V27.75c0-.736-.597-1.333-1.333-1.333zm-1.334 5.333h-8v-2.667h8v2.667z"/>
        <path d="M56 11.75H18.667c-.736 0-1.334.597-1.334 1.333v25.334c0 .736.598 1.333 1.334 1.333h31.741a1.333 1.333 0 0 0 1.277-1.717l-1.688-5.628 5.62 1.686a1.33 1.33 0 0 0 1.18-.208 1.33 1.33 0 0 0 .536-1.07v-19.73c0-.736-.597-1.333-1.333-1.333zm-1.333 19.272l-6.276-1.883a1.332 1.332 0 1 0-1.66 1.661l1.885 6.283H20V14.417h34.667v16.605z"/>
    </g>
</svg>
