<svg xmlns="http://www.w3.org/2000/svg" width="80" height="80" viewBox="0 0 80 80">
    <g fill="#2086FB" fill-rule="nonzero">
        <path d="M36.886 55.767a1.567 1.567 0 0 0-1.105-.458c-.41 0-.814.166-1.104.458-.291.29-.458.692-.458 1.105 0 .41.167.814.458 1.105.29.29.693.457 1.104.457.411 0 .814-.167 1.105-.457.29-.291.458-.694.458-1.105 0-.411-.167-.814-.458-1.105z"/>
        <path d="M70 41.877c-.863 0-1.563.7-1.563 1.562v6.872H41.564v-3.857c0-5.941-4.468-10.856-10.22-11.569a8.122 8.122 0 0 0 1.82-5.13V18.763c0-.863-.7-1.562-1.563-1.562h-8.175a6.595 6.595 0 0 0-6.587 6.587v5.967c0 1.943.682 3.727 1.82 5.13-5.753.713-10.22 5.628-10.22 11.57v3.856H3.125V12.773c0-.669.547-1.212 1.22-1.212h32.478a1.563 1.563 0 0 0 0-3.125H4.345A4.346 4.346 0 0 0 0 12.773v46.326a4.346 4.346 0 0 0 4.345 4.337h23.777v7.218c-3.942.399-7.028 3.737-7.028 7.782 0 .863.7 1.562 1.562 1.562h26.25c.863 0 1.563-.7 1.563-1.562 0-4.045-3.087-7.383-7.028-7.782v-7.218h23.777a4.346 4.346 0 0 0 4.345-4.337V43.44c0-.863-.7-1.562-1.563-1.562zM19.962 23.788a3.466 3.466 0 0 1 3.463-3.462h6.613v2.495a2.25 2.25 0 0 1-2.248 2.247h-7.828v-1.28zm0 4.405h7.828c.802 0 1.563-.178 2.248-.494v2.057A5.043 5.043 0 0 1 25 34.793a5.043 5.043 0 0 1-5.038-5.037v-1.563zm6.861 9.725L25 39.742l-1.823-1.824h3.646zm-15.26 8.536c0-4.282 3.17-7.837 7.286-8.444l5.046 5.046c.305.305.705.458 1.105.458s.8-.153 1.105-.458l5.045-5.046c4.117.607 7.288 4.162 7.288 8.444v3.857H11.561v-3.857zm35.513 30.42h-22.59a4.705 4.705 0 0 1 4.43-3.135H42.646a4.705 4.705 0 0 1 4.43 3.134zm-15.83-6.26v-7.178h9.07v7.178h-9.07zm37.191-11.515c0 .668-.547 1.212-1.219 1.212H4.345c-.673 0-1.22-.544-1.22-1.212v-5.663h65.313v5.663zM71.105 36.448A1.574 1.574 0 0 0 70 35.991c-.41 0-.814.167-1.105.457-.29.293-.457.694-.457 1.105 0 .413.167.814.457 1.105.29.292.694.458 1.105.458a1.567 1.567 0 0 0 1.563-1.563c0-.41-.168-.814-.458-1.105zM70 7.345H58.281a1.563 1.563 0 0 0 0 3.125H70a1.563 1.563 0 0 0 0-3.125zM52.98 7.803a1.574 1.574 0 0 0-1.105-.458c-.41 0-.814.168-1.105.458-.29.29-.458.694-.458 1.105 0 .41.168.814.458 1.104.291.291.694.458 1.105.458.41 0 .814-.167 1.105-.458.29-.29.458-.693.458-1.104 0-.411-.168-.814-.458-1.105zM70 14.22H51.875a1.563 1.563 0 0 0 0 3.125H70a1.563 1.563 0 0 0 0-3.125z"/>
        <path d="M70 21.095H51.875a1.563 1.563 0 0 0 0 3.125H70a1.563 1.563 0 0 0 0-3.125z"/>
        <path d="M72.188.002h-22.5c-4.308 0-7.813 3.504-7.813 7.812v16.719c0 4.008 3.034 7.322 6.927 7.762v4.06a1.563 1.563 0 0 0 2.667 1.106l5.116-5.116h15.602c4.308 0 7.813-3.504 7.813-7.812V7.814C80 3.506 76.495.002 72.187.002zm4.687 24.53a4.693 4.693 0 0 1-4.688 4.688h-16.25c-.414 0-.811.165-1.104.458l-2.906 2.906v-1.801c0-.863-.7-1.563-1.562-1.563h-.678A4.693 4.693 0 0 1 45 24.533V7.814a4.693 4.693 0 0 1 4.688-4.687h22.5a4.693 4.693 0 0 1 4.687 4.687v16.719z"/>
    </g>
</svg>
