<svg xmlns="http://www.w3.org/2000/svg" width="80" height="80" viewBox="0 0 80 80">
    <g fill="#2086FB" fill-rule="nonzero" transform="translate(0 4)">
        <path d="M70.754 25.098H44.992c.089-.47.136-.952.136-1.441V7.83c0-4.278-3.48-7.758-7.758-7.758H7.756C3.48.073 0 3.553 0 7.831v15.826c0 4.276 3.48 7.756 7.756 7.756h4.557l-.246 5.729a1.383 1.383 0 0 0 2.134 1.22l10.737-6.95h1.36a9.055 9.055 0 0 0-.434 2.774v19.131c0 5.011 4.077 9.088 9.089 9.088h3.926l8.657 8.841a1.382 1.382 0 0 0 2.365-.83l.794-8.01h20.059c5.012 0 9.09-4.078 9.09-9.089v-19.13c0-5.012-4.078-9.089-9.09-9.089zm-42.999 3.549H24.53c-.267 0-.528.077-.752.222l-8.832 5.716.193-4.496a1.384 1.384 0 0 0-1.382-1.442h-6a4.996 4.996 0 0 1-4.991-4.99V7.83a4.997 4.997 0 0 1 4.99-4.992H37.37a4.997 4.997 0 0 1 4.992 4.992v15.826c0 .495-.072.977-.212 1.441h-7.197a9.077 9.077 0 0 0-7.198 3.549zm49.323 24.67a6.33 6.33 0 0 1-6.324 6.322H49.442c-.71 0-1.306.54-1.376 1.247l-.626 6.31-6.991-7.141a1.382 1.382 0 0 0-.988-.416h-4.508a6.33 6.33 0 0 1-6.322-6.322v-19.13a6.33 6.33 0 0 1 6.322-6.323h35.801a6.33 6.33 0 0 1 6.324 6.322v19.131z"/>
        <path d="M28.586 10.566a6.034 6.034 0 0 0-5.64-5.64 5.986 5.986 0 0 0-4.514 1.625 6.058 6.058 0 0 0-1.903 4.398 1.383 1.383 0 1 0 2.766 0c0-.912.366-1.758 1.03-2.383a3.246 3.246 0 0 1 2.45-.88c1.61.1 2.95 1.44 3.05 3.051a3.273 3.273 0 0 1-1.558 3.002c-1.933 1.183-3.086 3.227-3.086 5.468a1.383 1.383 0 1 0 2.766 0c0-1.27.66-2.433 1.764-3.109a6.033 6.033 0 0 0 2.875-5.532zM52.854 33.435c-.764 0-1.383.619-1.383 1.383v11.706a1.383 1.383 0 0 0 2.766 0V34.818c0-.764-.62-1.383-1.383-1.383z"/>
        <circle cx="52.852" cy="52.72" r="1.383"/>
        <circle cx="22.562" cy="24.335" r="1.383"/>
    </g>
</svg>
