<svg xmlns="http://www.w3.org/2000/svg" width="80" height="80" viewBox="0 0 80 80">
    <g fill="#2086FB" fill-rule="nonzero">
        <path d="M78.828 30.915c.647 0 1.172-.525 1.172-1.172V9.423a4.276 4.276 0 0 0-4.272-4.271H4.272A4.276 4.276 0 0 0 0 9.423v62.211a2.592 2.592 0 0 0 2.589 2.589H77.41A2.591 2.591 0 0 0 80 71.634V34.527a1.172 1.172 0 1 0-2.344 0v37.107c0 .135-.11.245-.245.245H2.59a.245.245 0 0 1-.245-.245V19.197a7672.21 7672.21 0 0 1 51.485.003h.004a1.172 1.172 0 0 0 .004-2.343c-17.01-.06-34.328-.06-51.493-.004v-7.43a1.93 1.93 0 0 1 1.928-1.927h71.456a1.93 1.93 0 0 1 1.928 1.927v7.424a1079.06 1079.06 0 0 0-18.68.01 1.172 1.172 0 0 0 .01 2.344h.01c6.28-.057 12.398-.06 18.66-.01v10.552c0 .647.525 1.172 1.172 1.172z"/>
        <path d="M53.39 11.22H11.587a1.172 1.172 0 1 0 0 2.344H53.39a1.172 1.172 0 1 0 0-2.343zM59.057 10.902c-.647 0-1.172.525-1.172 1.172v.204a1.172 1.172 0 1 0 2.344 0v-.204c0-.647-.525-1.172-1.172-1.172zM63.735 10.902c-.648 0-1.172.525-1.172 1.172v.204a1.172 1.172 0 1 0 2.344 0v-.204c0-.647-.525-1.172-1.172-1.172zM68.413 10.902c-.648 0-1.172.525-1.172 1.172v.204a1.172 1.172 0 1 0 2.344 0v-.204c0-.647-.525-1.172-1.172-1.172zM32.793 32.307h-15.98a5.31 5.31 0 0 0-5.303 5.303v5.05a1.172 1.172 0 1 0 2.343 0v-5.05a2.963 2.963 0 0 1 2.96-2.96h15.98a2.963 2.963 0 0 1 2.96 2.96v15.98a2.963 2.963 0 0 1-2.96 2.96h-15.98a2.963 2.963 0 0 1-2.96-2.96v-6.146a1.172 1.172 0 1 0-2.343 0v6.146a5.31 5.31 0 0 0 5.303 5.303h15.98a5.31 5.31 0 0 0 5.303-5.303V37.61a5.31 5.31 0 0 0-5.303-5.303z"/>
        <path d="M28.545 43.483l-5.382-2.672a2.35 2.35 0 0 0-2.297.108 2.35 2.35 0 0 0-1.118 2.01v5.343a2.35 2.35 0 0 0 1.118 2.009 2.356 2.356 0 0 0 2.297.108l5.382-2.672a2.35 2.35 0 0 0 1.313-2.117 2.35 2.35 0 0 0-1.313-2.117zm-1.042 2.135l-5.39 2.675c-.006 0-.018-.008-.021-.022v-5.353c.003-.003.01-.009.022-.009h.007l5.39 2.676c.004.007.004.023-.008.033zM52.757 34.532h-6.336a1.172 1.172 0 1 0 0 2.344h6.336a1.172 1.172 0 1 0 0-2.344zM65.055 42.664H46.421a1.172 1.172 0 1 0 0 2.344h18.634a1.172 1.172 0 0 0 0-2.344zM65.055 48.494H46.421a1.172 1.172 0 1 0 0 2.344h18.634a1.172 1.172 0 0 0 0-2.344zM65.055 54.324H46.421a1.172 1.172 0 1 0 0 2.343h18.634a1.172 1.172 0 0 0 0-2.343z"/>
    </g>
</svg>
